<?xml version="1.0" encoding="UTF-8"?>
<svg xmlns="http://www.w3.org/2000/svg" xmlns:xlink="http://www.w3.org/1999/xlink" width="1250pt" height="800pt" viewBox="0 0 1250 800" version="1.1">
<g id="surface211">
<path style=" stroke:none;fill-rule:nonzero;fill:rgb(79.6%,23.5%,20%);fill-opacity:1;" d="M 115 30 C 115 43.808594 103.808594 55 90 55 C 76.191406 55 65 43.808594 65 30 C 65 16.191406 76.191406 5 90 5 C 103.808594 5 115 16.191406 115 30 "/>
<path style=" stroke:none;fill-rule:nonzero;fill:rgb(58.4%,34.5%,69.8%);fill-opacity:1;" d="M 190 30 C 190 43.808594 178.808594 55 165 55 C 151.191406 55 140 43.808594 140 30 C 140 16.191406 151.191406 5 165 5 C 178.808594 5 190 16.191406 190 30 "/>
<path style=" stroke:none;fill-rule:nonzero;fill:rgb(22%,59.6%,14.9%);fill-opacity:1;" d="M 900 30 C 900 43.808594 888.808594 55 875 55 C 861.191406 55 850 43.808594 850 30 C 850 16.191406 861.191406 5 875 5 C 888.808594 5 900 16.191406 900 30 "/>
<path style=" stroke:none;fill-rule:nonzero;fill:rgb(0%,0%,0%);fill-opacity:1;" d="M 107.300781 222.597656 C 93.695313 222.59375 82.847656 218.847656 74.75 211.347656 C 66.648438 203.851563 62.597656 193.699219 62.601563 180.898438 C 62.597656 168.699219 65.945313 159.25 72.648438 152.550781 C 79.34375 145.851563 88.996094 141.003906 101.597656 138 C 114.199219 135.003906 129.5 133.101563 147.5 132.296875 L 147.5 110.398438 C 147.5 99.601563 145.398438 91.753906 141.199219 86.851563 C 136.996094 81.953125 130.394531 79.503906 121.398438 79.5 C 116.59375 79.503906 111.894531 80.203125 107.296875 81.601563 C 102.695313 83.003906 98.796875 85.003906 95.601563 87.597656 C 100.597656 96.203125 103.097656 101.800781 103.101563 104.398438 C 103.097656 109 101.246094 112.703125 97.550781 115.5 C 93.847656 118.304688 89 119.703125 83 119.699219 C 77 119.703125 72.296875 118.152344 68.898438 115.050781 C 65.496094 111.949219 63.796875 107.5 63.800781 101.699219 C 63.796875 94.5 66.699219 87.800781 72.5 81.597656 C 78.296875 75.402344 85.945313 70.402344 95.449219 66.597656 C 104.945313 62.800781 115.195313 60.898438 126.199219 60.898438 C 146.398438 60.898438 161.199219 65.550781 170.597656 74.847656 C 179.996094 84.152344 184.695313 98.601563 184.699219 118.199219 L 184.699219 185.699219 C 184.695313 194.703125 188.796875 199.203125 197 199.199219 C 198.796875 199.203125 200.746094 199.003906 202.847656 198.601563 C 204.949219 198.203125 207.398438 197.601563 210.199219 196.796875 L 213.800781 210.296875 C 209.597656 214.101563 204.648438 217.097656 198.949219 219.296875 C 193.246094 221.492188 187.496094 222.59375 181.699219 222.597656 C 173.898438 222.59375 167.5 220.445313 162.5 216.148438 C 157.5 211.851563 154.199219 205.804688 152.601563 198 C 142.199219 214.398438 127.097656 222.59375 107.300781 222.597656 Z M 122 198 C 130 198.003906 136.25 195.550781 140.75 190.648438 C 145.25 185.75 147.5 179.101563 147.5 170.699219 L 147.5 150 C 132.699219 150.003906 121.246094 152.003906 113.148438 156 C 105.046875 160.003906 101 166.902344 101 176.699219 C 101 183.300781 102.847656 188.5 106.550781 192.300781 C 110.246094 196.101563 115.398438 198.003906 122 198 Z M 299 222.597656 C 284 222.59375 271.097656 219.296875 260.300781 212.699219 C 249.496094 206.101563 241.195313 197.050781 235.398438 185.546875 C 229.59375 174.050781 226.695313 160.902344 226.699219 146.097656 C 226.695313 128.902344 229.894531 113.953125 236.296875 101.25 C 242.695313 88.554688 251.796875 78.652344 263.597656 71.550781 C 275.398438 64.449219 289.199219 60.898438 305 60.898438 C 318 60.898438 328.648438 62.949219 336.949219 67.050781 C 345.246094 71.152344 351.394531 76.304688 355.398438 82.5 C 359.394531 88.703125 361.394531 95.101563 361.398438 101.699219 C 361.394531 107.902344 359.546875 113.003906 355.847656 117 C 352.148438 121.003906 346.796875 123.003906 339.800781 123 C 336.996094 123.003906 333.996094 122.550781 330.800781 121.648438 C 327.597656 120.75 324.898438 119.203125 322.699219 117 C 320.496094 114.804688 319.394531 111.601563 319.398438 107.398438 C 319.394531 105.199219 320.097656 102.601563 321.5 99.597656 C 322.898438 96.601563 325.195313 92.5 328.398438 87.296875 C 325.195313 85.101563 321.847656 83.503906 318.351563 82.5 C 314.847656 81.503906 310.597656 81.003906 305.601563 81 C 296.796875 81.003906 289.445313 83.503906 283.546875 88.5 C 277.644531 93.503906 273.195313 100.402344 270.199219 109.199219 C 267.195313 118 265.695313 128 265.699219 139.199219 C 265.695313 157.203125 269.59375 170.902344 277.398438 180.300781 C 285.195313 189.699219 295.496094 194.398438 308.300781 194.398438 C 317.097656 194.398438 324.75 192.898438 331.25 189.898438 C 337.75 186.898438 344 182.898438 350 177.898438 L 361.398438 190.796875 C 354.394531 199.601563 345.644531 207.101563 335.148438 213.300781 C 324.644531 219.496094 312.597656 222.59375 299 222.597656 Z M 445.402344 222.597656 C 431 222.59375 420.097656 218.847656 412.699219 211.347656 C 405.296875 203.851563 401.597656 192.601563 401.601563 177.597656 L 401.601563 87 L 378.800781 87 L 378.800781 68.699219 C 386.800781 67.902344 393.148438 65.753906 397.851563 62.25 C 402.546875 58.753906 406.148438 53.203125 408.652344 45.601563 C 411.148438 38.003906 412.898438 27.601563 413.902344 14.398438 L 434.300781 12.296875 L 438.5 14.097656 L 438.5 65.097656 L 483.5 65.097656 L 483.5 87 L 438.5 87 L 438.5 172.5 C 438.496094 179.902344 439.847656 185.851563 442.550781 190.347656 C 445.25 194.851563 450.398438 197.101563 458 197.097656 C 463.199219 197.101563 467.949219 196.199219 472.25 194.398438 C 476.546875 192.601563 480.796875 190.304688 485 187.5 L 493.699219 201.296875 C 487.496094 207.902344 480.246094 213.101563 471.949219 216.898438 C 463.644531 220.695313 454.796875 222.59375 445.402344 222.597656 Z M 589.398438 222.597656 C 579.796875 222.59375 570.148438 220.898438 560.449219 217.5 C 550.746094 214.101563 542.695313 209.699219 536.300781 204.296875 L 531.800781 220.199219 L 515 220.199219 L 509.300781 157.796875 L 529.699219 155.398438 C 534.898438 168.398438 542.097656 179 551.296875 187.199219 C 560.496094 195.402344 571.894531 199.503906 585.5 199.5 C 594.496094 199.503906 601.648438 198.050781 606.949219 195.148438 C 612.246094 192.25 616.09375 188.402344 618.496094 183.597656 C 620.894531 178.800781 622.09375 173.699219 622.097656 168.296875 C 622.09375 158.101563 618.195313 150.203125 610.398438 144.601563 C 602.597656 139.003906 591.296875 133.804688 576.5 129 C 563.09375 124.601563 551.894531 119.699219 542.898438 114.300781 C 533.894531 108.902344 527.09375 102.304688 522.496094 94.5 C 517.894531 86.703125 515.59375 76.902344 515.597656 65.097656 C 515.59375 57.300781 516.996094 49.75 519.796875 42.449219 C 522.597656 35.152344 526.746094 28.652344 532.25 22.949219 C 537.746094 17.25 544.695313 12.699219 553.097656 9.300781 C 561.496094 5.902344 571.398438 4.203125 582.800781 4.199219 C 593.195313 4.203125 602.195313 5.804688 609.796875 9 C 617.398438 12.203125 623.496094 15.703125 628.097656 19.5 L 632 4.199219 L 648.5 4.199219 L 655.097656 66.597656 L 635 69.898438 C 629.996094 54.101563 623.347656 42.753906 615.046875 35.851563 C 606.746094 28.953125 596.796875 25.503906 585.199219 25.5 C 575.597656 25.503906 567.695313 28.050781 561.5 33.148438 C 555.296875 38.25 552.199219 45.703125 552.199219 55.5 C 552.199219 62.304688 553.949219 67.851563 557.449219 72.148438 C 560.949219 76.449219 566.097656 80.300781 572.898438 83.699219 C 579.695313 87.101563 588.09375 90.703125 598.097656 94.5 C 607.09375 97.703125 615.394531 101.152344 622.996094 104.847656 C 630.59375 108.550781 637.09375 112.699219 642.496094 117.300781 C 647.894531 121.902344 652.09375 127.453125 655.097656 133.949219 C 658.09375 140.453125 659.59375 148.402344 659.597656 157.796875 C 659.59375 170.800781 656.445313 182.203125 650.148438 192 C 643.847656 201.804688 635.398438 209.351563 624.796875 214.648438 C 614.195313 219.945313 602.394531 222.59375 589.398438 222.597656 Z M 757.398438 222.597656 C 742.398438 222.59375 729.496094 219.296875 718.699219 212.699219 C 707.894531 206.101563 699.59375 197.050781 693.796875 185.546875 C 687.992188 174.050781 685.09375 160.902344 685.097656 146.097656 C 685.09375 128.902344 688.292969 113.953125 694.695313 101.25 C 701.09375 88.554688 710.195313 78.652344 721.996094 71.550781 C 733.796875 64.449219 747.597656 60.898438 763.398438 60.898438 C 776.398438 60.898438 787.046875 62.949219 795.347656 67.050781 C 803.644531 71.152344 809.792969 76.304688 813.796875 82.5 C 817.792969 88.703125 819.792969 95.101563 819.796875 101.699219 C 819.792969 107.902344 817.945313 113.003906 814.246094 117 C 810.546875 121.003906 805.195313 123.003906 798.199219 123 C 795.394531 123.003906 792.394531 122.550781 789.199219 121.648438 C 785.996094 120.75 783.296875 119.203125 781.097656 117 C 778.894531 114.804688 777.792969 111.601563 777.796875 107.398438 C 777.792969 105.199219 778.496094 102.601563 779.898438 99.597656 C 781.296875 96.601563 783.59375 92.5 786.796875 87.296875 C 783.59375 85.101563 780.246094 83.503906 776.75 82.5 C 773.246094 81.503906 768.996094 81.003906 764 81 C 755.195313 81.003906 747.84375 83.503906 741.945313 88.5 C 736.042969 93.503906 731.59375 100.402344 728.597656 109.199219 C 725.59375 118 724.09375 128 724.097656 139.199219 C 724.09375 157.203125 727.992188 170.902344 735.796875 180.300781 C 743.59375 189.699219 753.894531 194.398438 766.699219 194.398438 C 775.496094 194.398438 783.148438 192.898438 789.648438 189.898438 C 796.148438 186.898438 802.398438 182.898438 808.398438 177.898438 L 819.796875 190.796875 C 812.792969 199.601563 804.042969 207.101563 793.546875 213.300781 C 783.042969 219.496094 770.996094 222.59375 757.398438 222.597656 Z M 838.699219 218.398438 L 838.699219 201.597656 L 854.898438 198.898438 C 858.894531 198.300781 861.394531 197.050781 862.398438 195.148438 C 863.394531 193.25 863.894531 189.800781 863.898438 184.796875 L 863.898438 103.796875 C 863.894531 96.800781 863.34375 92.203125 862.246094 90 C 861.144531 87.804688 858.09375 86.304688 853.097656 85.5 L 839 83.398438 L 841.097656 66.597656 L 897.5 63.296875 L 901.097656 64.796875 L 901.097656 185.097656 C 901.09375 190.101563 901.644531 193.402344 902.746094 195 C 903.84375 196.601563 906.292969 197.898438 910.097656 198.898438 L 925.398438 201.898438 L 925.398438 218.398438 Z M 931.699219 218.398438 "/>
</g>
</svg>
