<?xml version="1.0" encoding="UTF-8"?>
<svg xmlns="http://www.w3.org/2000/svg" xmlns:xlink="http://www.w3.org/1999/xlink" width="900pt" height="250pt" viewBox="0 0 900 250" version="1.1">
<g id="surface28">
<path style=" stroke:none;fill-rule:nonzero;fill:rgb(79.6%,23.5%,20%);fill-opacity:1;" d="M 65 30 C 65 43.808594 53.808594 55 40 55 C 26.191406 55 15 43.808594 15 30 C 15 16.191406 26.191406 5 40 5 C 53.808594 5 65 16.191406 65 30 "/>
<path style=" stroke:none;fill-rule:nonzero;fill:rgb(58.4%,34.5%,69.8%);fill-opacity:1;" d="M 140 30 C 140 43.808594 128.808594 55 115 55 C 101.191406 55 90 43.808594 90 30 C 90 16.191406 101.191406 5 115 5 C 128.808594 5 140 16.191406 140 30 "/>
<path style=" stroke:none;fill-rule:nonzero;fill:rgb(22%,59.6%,14.9%);fill-opacity:1;" d="M 855 30 C 855 43.808594 843.808594 55 830 55 C 816.191406 55 805 43.808594 805 30 C 805 16.191406 816.191406 5 830 5 C 843.808594 5 855 16.191406 855 30 "/>
<path style=" stroke:none;fill-rule:nonzero;fill:rgb(0%,0%,0%);fill-opacity:1;" d="M 57.300781 229.199219 C 43.695313 229.195313 32.847656 225.449219 24.75 217.949219 C 16.648438 210.453125 12.597656 200.300781 12.601563 187.5 C 12.597656 175.300781 15.945313 165.851563 22.648438 159.152344 C 29.34375 152.453125 38.996094 147.605469 51.597656 144.601563 C 64.199219 141.605469 79.5 139.703125 97.5 138.898438 L 97.5 117 C 97.5 106.203125 95.398438 98.355469 91.199219 93.453125 C 86.996094 88.554688 80.394531 86.105469 71.398438 86.101563 C 66.59375 86.105469 61.894531 86.804688 57.296875 88.203125 C 52.695313 89.605469 48.796875 91.605469 45.601563 94.199219 C 50.597656 102.804688 53.097656 108.402344 53.101563 111 C 53.097656 115.601563 51.246094 119.304688 47.550781 122.101563 C 43.847656 124.90625 39 126.304688 33 126.300781 C 27 126.304688 22.296875 124.753906 18.898438 121.652344 C 15.496094 118.550781 13.796875 114.101563 13.800781 108.300781 C 13.796875 101.101563 16.699219 94.402344 22.5 88.199219 C 28.296875 82.003906 35.945313 77.003906 45.449219 73.199219 C 54.945313 69.402344 65.195313 67.5 76.199219 67.5 C 96.398438 67.5 111.199219 72.152344 120.597656 81.449219 C 129.996094 90.753906 134.695313 105.203125 134.699219 124.800781 L 134.699219 192.300781 C 134.695313 201.304688 138.796875 205.804688 147 205.800781 C 148.796875 205.804688 150.746094 205.605469 152.847656 205.203125 C 154.949219 204.804688 157.398438 204.203125 160.199219 203.398438 L 163.800781 216.898438 C 159.597656 220.703125 154.648438 223.699219 148.949219 225.898438 C 143.246094 228.09375 137.496094 229.195313 131.699219 229.199219 C 123.898438 229.195313 117.5 227.046875 112.5 222.75 C 107.5 218.453125 104.199219 212.40625 102.601563 204.601563 C 92.199219 221 77.097656 229.195313 57.300781 229.199219 Z M 72 204.601563 C 80 204.605469 86.25 202.152344 90.75 197.25 C 95.25 192.351563 97.5 185.703125 97.5 177.300781 L 97.5 156.601563 C 82.699219 156.605469 71.246094 158.605469 63.148438 162.601563 C 55.046875 166.605469 51 173.503906 51 183.300781 C 51 189.902344 52.847656 195.101563 56.550781 198.902344 C 60.246094 202.703125 65.398438 204.605469 72 204.601563 Z M 249 229.199219 C 234 229.195313 221.097656 225.898438 210.300781 219.300781 C 199.496094 212.703125 191.195313 203.652344 185.398438 192.148438 C 179.59375 180.652344 176.695313 167.503906 176.699219 152.699219 C 176.695313 135.503906 179.894531 120.554688 186.296875 107.851563 C 192.695313 95.15625 201.796875 85.253906 213.597656 78.152344 C 225.398438 71.050781 239.199219 67.5 255 67.5 C 268 67.5 278.648438 69.550781 286.949219 73.652344 C 295.246094 77.753906 301.394531 82.90625 305.398438 89.101563 C 309.394531 95.304688 311.394531 101.703125 311.398438 108.300781 C 311.394531 114.503906 309.546875 119.605469 305.847656 123.601563 C 302.148438 127.605469 296.796875 129.605469 289.800781 129.601563 C 286.996094 129.605469 283.996094 129.152344 280.800781 128.25 C 277.597656 127.351563 274.898438 125.804688 272.699219 123.601563 C 270.496094 121.40625 269.394531 118.203125 269.398438 114 C 269.394531 111.800781 270.097656 109.203125 271.5 106.199219 C 272.898438 103.203125 275.195313 99.101563 278.398438 93.898438 C 275.195313 91.703125 271.847656 90.105469 268.351563 89.101563 C 264.847656 88.105469 260.597656 87.605469 255.601563 87.601563 C 246.796875 87.605469 239.445313 90.105469 233.546875 95.101563 C 227.644531 100.105469 223.195313 107.003906 220.199219 115.800781 C 217.195313 124.601563 215.695313 134.601563 215.699219 145.800781 C 215.695313 163.804688 219.59375 177.503906 227.398438 186.902344 C 235.195313 196.300781 245.496094 201 258.300781 201 C 267.097656 201 274.75 199.5 281.25 196.5 C 287.75 193.5 294 189.5 300 184.5 L 311.398438 197.398438 C 304.394531 206.203125 295.644531 213.703125 285.148438 219.902344 C 274.644531 226.097656 262.597656 229.195313 249 229.199219 Z M 395.402344 229.199219 C 381 229.195313 370.097656 225.449219 362.699219 217.949219 C 355.296875 210.453125 351.597656 199.203125 351.601563 184.199219 L 351.601563 93.601563 L 328.800781 93.601563 L 328.800781 75.300781 C 336.800781 74.503906 343.148438 72.355469 347.851563 68.851563 C 352.546875 65.355469 356.148438 59.804688 358.652344 52.203125 C 361.148438 44.605469 362.898438 34.203125 363.902344 21 L 384.300781 18.898438 L 388.5 20.699219 L 388.5 71.699219 L 433.5 71.699219 L 433.5 93.601563 L 388.5 93.601563 L 388.5 179.101563 C 388.496094 186.503906 389.847656 192.453125 392.550781 196.949219 C 395.25 201.453125 400.398438 203.703125 408 203.699219 C 413.199219 203.703125 417.949219 202.800781 422.25 201 C 426.546875 199.203125 430.796875 196.90625 435 194.101563 L 443.699219 207.898438 C 437.496094 214.503906 430.246094 219.703125 421.949219 223.5 C 413.644531 227.296875 404.796875 229.195313 395.402344 229.199219 Z M 539.398438 229.199219 C 529.796875 229.195313 520.148438 227.5 510.449219 224.101563 C 500.746094 220.703125 492.695313 216.300781 486.300781 210.898438 L 481.800781 226.800781 L 465 226.800781 L 459.300781 164.398438 L 479.699219 162 C 484.898438 175 492.097656 185.601563 501.296875 193.800781 C 510.496094 202.003906 521.894531 206.105469 535.5 206.101563 C 544.496094 206.105469 551.648438 204.652344 556.949219 201.75 C 562.246094 198.851563 566.09375 195.003906 568.496094 190.199219 C 570.894531 185.402344 572.09375 180.300781 572.097656 174.898438 C 572.09375 164.703125 568.195313 156.804688 560.398438 151.203125 C 552.597656 145.605469 541.296875 140.40625 526.5 135.601563 C 513.09375 131.203125 501.894531 126.300781 492.898438 120.902344 C 483.894531 115.503906 477.09375 108.90625 472.496094 101.101563 C 467.894531 93.304688 465.59375 83.503906 465.597656 71.699219 C 465.59375 63.902344 466.996094 56.351563 469.796875 49.050781 C 472.597656 41.753906 476.746094 35.253906 482.25 29.550781 C 487.746094 23.851563 494.695313 19.300781 503.097656 15.902344 C 511.496094 12.503906 521.398438 10.804688 532.800781 10.800781 C 543.195313 10.804688 552.195313 12.40625 559.796875 15.601563 C 567.398438 18.804688 573.496094 22.304688 578.097656 26.101563 L 582 10.800781 L 598.5 10.800781 L 605.097656 73.199219 L 585 76.5 C 579.996094 60.703125 573.347656 49.355469 565.046875 42.453125 C 556.746094 35.554688 546.796875 32.105469 535.199219 32.101563 C 525.597656 32.105469 517.695313 34.652344 511.5 39.75 C 505.296875 44.851563 502.199219 52.304688 502.199219 62.101563 C 502.199219 68.90625 503.949219 74.453125 507.449219 78.75 C 510.949219 83.050781 516.097656 86.902344 522.898438 90.300781 C 529.695313 93.703125 538.09375 97.304688 548.097656 101.101563 C 557.09375 104.304688 565.394531 107.753906 572.996094 111.449219 C 580.59375 115.152344 587.09375 119.300781 592.496094 123.902344 C 597.894531 128.503906 602.09375 134.054688 605.097656 140.550781 C 608.09375 147.054688 609.59375 155.003906 609.597656 164.398438 C 609.59375 177.402344 606.445313 188.804688 600.148438 198.601563 C 593.847656 208.40625 585.398438 215.953125 574.796875 221.25 C 564.195313 226.546875 552.394531 229.195313 539.398438 229.199219 Z M 707.398438 229.199219 C 692.398438 229.195313 679.496094 225.898438 668.699219 219.300781 C 657.894531 212.703125 649.59375 203.652344 643.796875 192.148438 C 637.992188 180.652344 635.09375 167.503906 635.097656 152.699219 C 635.09375 135.503906 638.292969 120.554688 644.695313 107.851563 C 651.09375 95.15625 660.195313 85.253906 671.996094 78.152344 C 683.796875 71.050781 697.597656 67.5 713.398438 67.5 C 726.398438 67.5 737.046875 69.550781 745.347656 73.652344 C 753.644531 77.753906 759.792969 82.90625 763.796875 89.101563 C 767.792969 95.304688 769.792969 101.703125 769.796875 108.300781 C 769.792969 114.503906 767.945313 119.605469 764.246094 123.601563 C 760.546875 127.605469 755.195313 129.605469 748.199219 129.601563 C 745.394531 129.605469 742.394531 129.152344 739.199219 128.25 C 735.996094 127.351563 733.296875 125.804688 731.097656 123.601563 C 728.894531 121.40625 727.792969 118.203125 727.796875 114 C 727.792969 111.800781 728.496094 109.203125 729.898438 106.199219 C 731.296875 103.203125 733.59375 99.101563 736.796875 93.898438 C 733.59375 91.703125 730.246094 90.105469 726.75 89.101563 C 723.246094 88.105469 718.996094 87.605469 714 87.601563 C 705.195313 87.605469 697.84375 90.105469 691.945313 95.101563 C 686.042969 100.105469 681.59375 107.003906 678.597656 115.800781 C 675.59375 124.601563 674.09375 134.601563 674.097656 145.800781 C 674.09375 163.804688 677.992188 177.503906 685.796875 186.902344 C 693.59375 196.300781 703.894531 201 716.699219 201 C 725.496094 201 733.148438 199.5 739.648438 196.5 C 746.148438 193.5 752.398438 189.5 758.398438 184.5 L 769.796875 197.398438 C 762.792969 206.203125 754.042969 213.703125 743.546875 219.902344 C 733.042969 226.097656 720.996094 229.195313 707.398438 229.199219 Z M 788.699219 225 L 788.699219 208.199219 L 804.898438 205.5 C 808.894531 204.902344 811.394531 203.652344 812.398438 201.75 C 813.394531 199.851563 813.894531 196.402344 813.898438 191.398438 L 813.898438 110.398438 C 813.894531 103.402344 813.34375 98.804688 812.246094 96.601563 C 811.144531 94.40625 808.09375 92.90625 803.097656 92.101563 L 789 90 L 791.097656 73.199219 L 847.5 69.898438 L 851.097656 71.398438 L 851.097656 191.699219 C 851.09375 196.703125 851.644531 200.003906 852.746094 201.601563 C 853.84375 203.203125 856.292969 204.5 860.097656 205.5 L 875.398438 208.5 L 875.398438 225 Z M 881.699219 225 "/>
</g>
</svg>
